<svg version="1" xmlns="http://www.w3.org/2000/svg" width="298.667" height="298.667" viewBox="0 0 224.000000 224.000000"><path d="M126 42.4c0 .2-11.3 33.6-31.6 93.1-12 35.2-13.5 39.7-13.2 40.1.6.5 16.8 6.4 16.8 6 0-.2 11.3-33.6 31.6-93.1 12-35.2 13.5-39.7 13.2-40.1-.6-.5-16.8-6.4-16.8-6zM39.9 88.6C28.7 101 19.5 111.5 19.5 112c0 .9 40.4 46 41.1 46 .8 0 13.4-10.3 13.4-10.9 0-.4-7-8.2-15.5-17.5S43 112.4 43 112c0-.4 7-8.3 15.5-17.6S74 77.3 74 76.9C74 76.3 61.4 66 60.6 66c-.2 0-9.6 10.2-20.7 22.6zM161.2 71.1c-3.4 2.8-6.2 5.6-6.2 6.1s6.8 8.3 15 17.4c8.3 9 15 16.9 15 17.4s-6.7 8.4-15 17.4c-8.2 9.1-15 16.9-15 17.4 0 1.2 11.5 10.7 12.9 10.7 1.2 0 41.1-44.1 41.1-45.5 0-1.1-39.4-45.2-40.8-45.8-.4-.1-3.5 2.1-7 4.9z"/></svg>